<svg height="310" viewBox="0 0 480 310" width="480" xmlns="http://www.w3.org/2000/svg"><path d="m-63 324h588.7v-331h-588.7z" fill="none"/><path d="m473.9 113.6-53.1 30.7c-3.7 2.2-3.8 7.5-.1 9.7l29.7 17.6c3.7 2.2 3.7 7.6-.1 9.7l-158 91.2c-3.5 2-7.8 2-11.3 0l-207.6-119.8c-3.5-2-7.8-2-11.3 0l-48.3 28c-3.8 2.2-3.7 7.6 0 9.8l45.5 26.3c3.8 2.2 3.8 7.6 0 9.8l-54.2 31.1" fill="none" stroke="#ff6f00" stroke-width="2"/><path d="m8.9 257.7c0-2.1-1.6-3.8-3.7-3.8s-3.8 1.6-3.8 3.7v.1c.1 2.1 1.8 3.7 3.9 3.7 1.9-.1 3.5-1.7 3.6-3.7" fill="#fff"/><path d="m8.9 257.7c0-2.1-1.6-3.8-3.7-3.8s-3.8 1.6-3.8 3.7v.1c.1 2.1 1.8 3.7 3.9 3.7 1.9-.1 3.5-1.7 3.6-3.7z" fill="none" stroke="#ff6f00" stroke-width="2"/><path d="m477.4 113.6c0-2.1-1.7-3.8-3.8-3.8s-3.8 1.7-3.8 3.8 1.7 3.8 3.8 3.8 3.8-1.7 3.8-3.8" fill="#fff"/><path d="m477.4 113.6c0-2.1-1.7-3.8-3.8-3.8s-3.8 1.7-3.8 3.8 1.7 3.8 3.8 3.8 3.8-1.7 3.8-3.8z" fill="none" stroke="#ff6f00" stroke-width="2"/><path d="m83.5 266.8 25.4-14.9c3.5-2 7.8-2.1 11.3 0l41.4 23.9" fill="none" stroke="#425066" stroke-width="2"/><path d="m333.6 284.9 58.2-33.6c3.8-2.2 3.8-7.6 0-9.8l-55.1-31.8m-268.9-168.6 22.8 13c3.8 2.2 3.8 7.6 0 9.8l-61.2 35.5c-3.8 2.2-3.8 7.6 0 9.8l79.7 46c3.5 2 7.8 2 11.3 0l25.6-14.8m265.8-81.2-10 5.8c-3.5 2-7.8 2-11.3 0l-35.6-20.6c-3.5-2-7.8-2-11.3 0l-95.3 55c-3.8 2.2-3.8 7.6 0 9.8l69.7 40.2m156.4-108.3-54.2 31.2c-3.8 2.2-3.8 7.6 0 9.8l18.7 10.8c1.9 1.1 1.9 3.8 0 4.9l-11.5 6.5" fill="none" stroke="#e5e6e8" stroke-width="2"/><path d="m230.9 253.9-47.9 27.7c-3.5 2-7.8 2-11.3 0l-20-11.5c-3.5-2-7.8-2-11.3 0l-25.6 14.8" fill="none" stroke="#425066" stroke-width="2"/><path d="m118.5 284.9c0-2.1-1.7-3.8-3.8-3.8s-3.8 1.7-3.8 3.8 1.7 3.8 3.8 3.8c2.1-.1 3.8-1.7 3.8-3.8" fill="#fff"/><path d="m118.5 284.9c0-2.1-1.7-3.8-3.8-3.8s-3.8 1.7-3.8 3.8 1.7 3.8 3.8 3.8c2.1-.1 3.8-1.7 3.8-3.8z" fill="none" stroke="#425066" stroke-width="2"/><path d="m87.2 266.8c0-2.1-1.7-3.8-3.8-3.8s-3.8 1.7-3.8 3.8 1.7 3.8 3.8 3.8 3.8-1.7 3.8-3.8" fill="#425066"/><path d="m87.2 266.8c0-2.1-1.7-3.8-3.8-3.8s-3.8 1.7-3.8 3.8 1.7 3.8 3.8 3.8 3.8-1.7 3.8-3.8z" fill="none" stroke="#425066" stroke-width="2"/><path d="m415.5 58.3c0-2.1-1.7-3.8-3.8-3.8s-3.8 1.7-3.8 3.8 1.7 3.8 3.8 3.8 3.8-1.7 3.8-3.8" fill="#e5e6e8"/><path d="m415.5 58.3c0-2.1-1.7-3.8-3.8-3.8s-3.8 1.7-3.8 3.8 1.7 3.8 3.8 3.8 3.8-1.7 3.8-3.8z" fill="none" stroke="#e5e6e8" stroke-width="2"/><path d="m478.1 41.1c0-2.1-1.7-3.8-3.8-3.8s-3.8 1.7-3.8 3.8 1.7 3.8 3.8 3.8 3.8-1.7 3.8-3.8" fill="#e5e6e8"/><path d="m478.1 41.1c0-2.1-1.7-3.8-3.8-3.8s-3.8 1.7-3.8 3.8 1.7 3.8 3.8 3.8 3.8-1.7 3.8-3.8z" fill="none" stroke="#e5e6e8" stroke-width="2"/><path d="m337.4 284.9c0-2.1-1.7-3.8-3.8-3.8s-3.8 1.7-3.8 3.8 1.7 3.8 3.8 3.8c2.1-.1 3.8-1.7 3.8-3.8" fill="#fff"/><path d="m337.4 284.9c0-2.1-1.7-3.8-3.8-3.8s-3.8 1.7-3.8 3.8 1.7 3.8 3.8 3.8c2.1-.1 3.8-1.7 3.8-3.8z" fill="none" stroke="#e5e6e8" stroke-width="2"/><path d="m333.6 68.2-54-31.2c-3.8-2.2-3.8-7.6 0-9.8l32.8-18.9c3.5-2 7.8-2 11.3 0l41.3 23.8" fill="none" stroke="#425066" stroke-width="2"/><path d="m368.2 32.1c0-1.8-1.5-3.3-3.3-3.3s-3.3 1.5-3.3 3.3 1.5 3.3 3.3 3.3 3.3-1.4 3.3-3.3" fill="#fff"/><path d="m368.2 32.1c0-1.8-1.5-3.3-3.3-3.3s-3.3 1.5-3.3 3.3 1.5 3.3 3.3 3.3 3.3-1.4 3.3-3.3z" fill="none" stroke="#425066" stroke-width="2"/><path d="m71.6 41.1c0-2.1-1.7-3.8-3.8-3.8s-3.8 1.7-3.8 3.8 1.7 3.8 3.8 3.8 3.8-1.7 3.8-3.8" fill="#fff"/><path d="m71.6 41.1c0-2.1-1.7-3.8-3.8-3.8s-3.8 1.7-3.8 3.8 1.7 3.8 3.8 3.8 3.8-1.7 3.8-3.8z" fill="none" stroke="#e5e6e8" stroke-width="2"/><path d="m431.2 104.3c0-2.1-1.7-3.8-3.8-3.8s-3.8 1.7-3.8 3.8 1.7 3.8 3.8 3.8 3.8-1.7 3.8-3.8" fill="#fff"/><path d="m431.2 104.3c0-2.1-1.7-3.8-3.8-3.8s-3.8 1.7-3.8 3.8 1.7 3.8 3.8 3.8 3.8-1.7 3.8-3.8zm-300.6-99.1 116.4 67.2c3.8 2.2 3.8 7.6 0 9.8l-38.4 22.2" fill="none" stroke="#e5e6e8" stroke-width="2"/><path d="m134.3 5.2c0-2.1-1.7-3.8-3.8-3.8s-3.8 1.7-3.8 3.8 1.7 3.8 3.8 3.8c2.2-.1 3.8-1.8 3.8-3.8" fill="#e5e6e8"/><path d="m134.3 5.2c0-2.1-1.7-3.8-3.8-3.8s-3.8 1.7-3.8 3.8 1.7 3.8 3.8 3.8c2.2-.1 3.8-1.8 3.8-3.8z" fill="none" stroke="#e5e6e8" stroke-width="2"/><path d="m246.3 303.3 10.7 6.7 81.7-47.2v-6.7l-15 5.7z" fill="#b8baba"/><path d="m257 303.3v6.7l-148.9-86v-6.7l9.4 1.6 141.5 79.5z" fill="#425066"/><path d="m321.3 252.7-70.1 40.5-131.4-75.8 22.6-13.1c.8-.5 2.1-.5 2.9 0 2.4 1.4 6.3 1.4 8.8 0l13.1-7.6c2.4-1.4 2.4-3.7 0-5.1-.8-.5-.8-1.2 0-1.7l22.6-13.1zm-213.1-35.4 148.9 86 81.7-47.2-148.9-86z" fill="#fff"/><path d="m298.8 270.7-16.4 9.5c-.7.4-.6 1.1.2 1.6s2 .5 2.7.1l16.4-9.5c.7-.4.6-1.1-.2-1.6-.7-.4-2-.5-2.7-.1m-146.8-70.3c1.2.7 1.2 1.8 0 2.5s-3.2.7-4.4 0-1.2-1.8 0-2.5 3.1-.7 4.4 0m13.1-7.5c1.2.7 1.2 1.8 0 2.5s-3.2.7-4.4 0-1.2-1.8 0-2.5 3.2-.7 4.4 0" fill="#e5e6e8"/><path d="m321.3 252.7-70.1 40.5-131.4-75.8 22.6-13.1c.8-.5 2.1-.5 2.9 0 2.4 1.4 6.3 1.4 8.8 0l13.1-7.6c2.4-1.4 2.4-3.7 0-5.1-.8-.5-.8-1.2 0-1.7l22.6-13.1z" fill="#e5e6e8"/><path d="m239.5 286.4 11.7 6.7 70.1-40.5-11.7-6.7zm18.2-40-38 21.9 5.1 3 38-21.9zm28.5-7.2-58.4 33.7 2.9 1.7 58.4-33.7zm5.9 3.4-58.4 33.7 2.9 1.7 58.4-33.7zm-49.6 38.8 52.6-30.4-2.9-1.7-52.6 30.4zm-92.7-53.6 18.2-10.5-11.7-6.7-18.2 10.5zm46.7-30.3 8.8-5.1-2.9-1.7-8.8 5.1zm-8.8-5.1 2.9 1.7 8.8-5.1-2.9-1.7zm-32.1 38.8 58.4 33.7 58.4-33.7-58.4-33.7zm75.6-222.7-5.8 16.9-137.3 65.7-5.8-3.4 143-82.6c.1.1 5.9 3.4 5.9 3.4z" fill="#fff"/><path d="m82.3 209.1v-121.4l5.8 3.4 5.8 10.1-5.8 111.2z" fill="#425066"/><path d="m225.4 126.5-137.2 86v-13.5l131.4-75.8z" fill="#697587"/><path d="m225.4 126.5-131.4 75.9v-101.2l131.4-75.8zm0-114.6-131.4 75.8-5.8 3.4v121.4l5.8-3.4 137.2-79.2v-121.4z" fill="#ced0d1"/><path d="m96.2 93.2c0-1.4-1-2-2.2-1.3s-2.2 2.4-2.2 3.8 1 2 2.2 1.3 2.2-2.4 2.2-3.8m7.3-4.2c0-1.4-1-2-2.2-1.3s-2.2 2.4-2.2 3.8 1 2 2.2 1.3 2.2-2.4 2.2-3.8m7.3-4.2c0-1.4-1-2-2.2-1.3s-2.2 2.4-2.2 3.8 1 2 2.2 1.3 2.2-2.4 2.2-3.8" fill="#e5e6e8"/><path d="m225.4 126.6v-101.1l-131.3 75.8v101.1z" fill="#fff"/><path d="m102.8 128.2 2.9-1.7v-3.4l-2.9 1.7zm0-8.4 2.9-1.7v-3.4l-2.9 1.7zm5.9 5.1 19-10.9v-3.4l-19 10.9zm0-8.5 12.4-7.2v-3.4l-12.4 7.2zm13.8-8 23.3-13.4v-3.4l-23.3 13.5zm24.8-14.3 28.4-16.4v-3.4l-28.4 16.4zm48.9-19.8 17.5-10.1v-3.4l-17.5 10.2zm0-8.4 20.4-11.8v-3.4l-20.4 11.8zm-32.1 23.6-5.8 3.4v3.4l5.8-3.4zm-7.3 4.2-27.7 16v3.4l27.7-16zm-56.9 17.7 119.6-69.1v21.1l-119.6 69zm125.5-85.9v6.7l-131.3 75.8v-6.7l131.3-75.8z" fill="#e5e6e8"/><path d="m216.6 71-20.4 11.8v-3.4l20.4-11.8zm0 16.8-20.4 11.8v-3.4l20.4-11.8zm-2.9 10.1-17.5 10.1v-3.4l17.5-10.1zm-37.9 5.1-24.8 14.3v-3.4l24.8-14.3zm-11.7 15.1-46.7 27v-3.4l46.7-27zm-10.2 14.3-7.3 4.2v-3.4l7.3-4.2zm-8.8 5.1-27.7 16v-3.4l27.7-16zm-18.9-9.3v3.4l-8.8 5.1v-3.4zm-12.4-1.2 27.7-16v3.4l-27.7 16zm-8.1 8-2.9 1.7v-3.4l2.9-1.7zm0 8.4-2.9 1.7v-3.4l2.9-1.7zm0 8.4-2.9 1.7v-3.4l2.9-1.7zm0 8.4-2.9 1.7v-3.4l2.9-1.7zm43.8-45.4v3.4l-21.9 12.6v-3.4zm-6.6-4.7 21.2-12.2v3.4l-21.2 12.2zm53.3-22.3 17.5-10.1v3.4l-17.5 10.1zm-96.3 44.6v33.7l119.6-69.1v-33.6zm75.1 4.7-18.2 10.5v-3.4l18.2-10.5zm-19.7 11.4-24.1 13.9v-3.4l24.1-13.9zm0 8.4-37.9 21.9v-3.4l37.9-21.9zm-25.5 2.9v3.4l-12.4 7.2v-3.4zm-21.2 3.8 36.5-21.1v3.4l-36.5 21.1zm-2.9 5.1-2.9 1.7v-3.4l2.9-1.7zm0 8.4-2.9 1.7v-3.4l2.9-1.7zm0 8.4-2.9 1.7v-3.4l2.9-1.7zm0 6.7-2.9 1.7v-3.4l2.9-1.7zm-5.8-26.1v32.9l119.6-69.1v-32.8z" fill="#e5e6e8"/><path d="m260.5 48.5v134.5l49.9 28.8 1-.6v-134.4l-49.9-28.8z" fill="#ced0d1"/><path d="m310.4 77.4-4.2 2.4v9.6l4.2-2.4v120.1l-4.2 2.4v4.8l4.2-2.4 33.3-19.2v-134.5z" fill="#3a485f"/><path d="m318.7 82.2v134.5l49.9 28.8 1-.6v-134.4l-49.9-28.8z" fill="#ced0d1"/><path d="m318.7 211.9-4.2 2.4 49.9 28.8 4.2-2.4z" fill="#fff"/><path d="m314.6 214.3v4.8l49.9 28.8v-4.8z" fill="#ced0d1"/><path d="m264.6 65.4v9.6l41.6 24v-9.6z" fill="#e5e6e8"/><path d="m302.1 77.4 4.2 2.4v9.6l-4.2-2.4z" fill="#ced0d1"/><path d="m264.6 84.6v9.6l41.6 24v-9.6zm0 19.2v9.6l41.6 24v-9.6zm0 19.2v9.6l41.6 24v-9.6zm0 19.2v9.6l41.6 24v-9.6zm0 19.3v9.6l41.6 24v-9.6z" fill="#e5e6e8"/><path d="m256.3 51v8.2l4.2 2.4v-8.2z" fill="#ced0d1"/><path d="m264.6 51v8.2l-4.2 2.4v-8.2z" fill="#b8baba"/><path d="m260.5 178.3-4.2 2.4 49.9 28.8 4.2-2.4z" fill="#fff"/><path d="m256.3 180.7v4.8l49.9 28.8v-4.8z" fill="#ced0d1"/><path d="m322.9 99v9.6l41.6 24v-9.6z" fill="#e5e6e8"/><path d="m360.4 111 4.2 2.4v9.6l-4.2-2.4z" fill="#ced0d1"/><path d="m322.9 118.2v9.6l41.6 24v-9.6zm0 19.2v9.6l41.6 24v-9.6zm0 19.3v9.6l41.6 24v-9.6zm0 19.2v9.6l41.6 24v-9.6zm0 19.2v9.6l41.6 24v-9.6z" fill="#e5e6e8"/><path d="m314.6 84.6v8.2l4.2 2.4v-8.2z" fill="#ced0d1"/><path d="m322.9 84.6v8.2l-4.2 2.4v-8.2z" fill="#b8baba"/><path d="m352 63-33.3 19.2-4.2 2.4 4.2 2.4 4.2-2.4 41.6 24-4.2 2.4 4.2 2.4 4.2-2.4 33.3-19.2zm-41.6 14.4 33.3-19.2-49.9-28.8-33.3 19.2-4.2 2.4 4.2 2.4 4.2-2.4 41.6 24-4.2 2.4 4.2 2.4z" fill="#fff"/><path d="m368.7 111-4.2 2.4v9.6l4.2-2.4v120.1l-4.2 2.4v4.8l4.2-2.4 33.3-19.2v-134.5z" fill="#3a485f"/><path d="m305.3 94.1v7c0 1 .5 2 1.4 2.5l11 6.3c.9.5 2 .5 2.9 0l4.4-2.5m-19.7 5.9v7c0 1 .5 2 1.4 2.5l11 6.3c.9.5 2 .5 2.9 0l4.5-2.6m-19.8 6.1v7c0 1 .5 2 1.4 2.5l11 6.3c.9.5 2 .5 2.9 0l4.5-2.6m-19.8 6v7c0 1 .5 2 1.4 2.5l11 6.3c.9.5 2 .5 2.9 0l4.4-2.5m-19.7 5.9v7c0 1 .5 2 1.4 2.5l11 6.3c.9.5 2 .5 2.9 0l4.4-2.5m-19.7 5.9v7c0 1 .5 2 1.4 2.5l11 6.3c.9.5 2 .5 2.9 0l4.4-2.5" fill="none" stroke="#e5e6e8" stroke-linecap="round" stroke-linejoin="round" stroke-width="2"/><path d="m392 108.8c-.9.5-1.7 1.8-1.7 2.9v4.8c0 1.1.7 1.5 1.7 1 .9-.5 1.7-1.8 1.7-2.9v-4.8c-.1-1.1-.8-1.5-1.7-1m-6.7 3.9c-.9.5-1.7 1.8-1.7 2.9v4.8c0 1.1.7 1.5 1.7 1 .9-.5 1.7-1.8 1.7-2.9v-4.8c0-1.1-.8-1.5-1.7-1m-6.6 3.8c-.9.5-1.7 1.8-1.7 2.9v4.8c0 1.1.7 1.5 1.7 1 .9-.5 1.7-1.8 1.7-2.9v-4.8c-.1-1.1-.8-1.5-1.7-1" fill="#ced0d1"/><g fill="none"><path d="m236.8 120c1.9.3 3.7.7 5.5 1.2" stroke="#ff6f00" stroke-width="2"/><path d="m250 124.3c11.1 6 18.6 17.2 20 29.9" stroke="#ff6f00" stroke-dasharray="13.253 8.835" stroke-width="2"/><path d="m270.3 158.4c0 1.9-.1 3.8-.4 5.6m-77.1-11c.3-1.9.7-3.7 1.2-5.5" stroke="#ff6f00" stroke-width="2"/><path d="m197.2 139.8c6-11.1 17.2-18.6 29.9-20" stroke="#ff6f00" stroke-dasharray="13.253 8.835" stroke-width="2"/><path d="m231.2 119.6c1.9 0 3.8.1 5.6.4m-11 77c-1.9-.3-3.7-.7-5.5-1.2" stroke="#ff6f00" stroke-width="2"/><path d="m212.6 192.7c-11.1-6-18.6-17.2-20-29.9" stroke="#ff6f00" stroke-dasharray="13.253 8.835" stroke-width="2"/><path d="m192.4 158.6c0-1.9.1-3.8.4-5.6m77.1 11c-.3 1.9-.7 3.7-1.2 5.5" stroke="#ff6f00" stroke-width="2"/><path d="m265.5 177.2c-6 11.1-17.2 18.6-29.9 20" stroke="#ff6f00" stroke-dasharray="13.253 8.835" stroke-width="2"/><path d="m231.4 197.4c-1.9 0-3.8-.1-5.6-.4" stroke="#ff6f00" stroke-width="2"/></g><path d="m240.7 157.7c-.4-5.2-5-9-10.2-8.6-5.2.5-9 5.1-8.4 10.3.5 5.1 5 8.9 10.1 8.5 5.1-.5 8.9-5 8.5-10.2" fill="#ff6f00"/></svg>